<?xml version="1.0" encoding="utf-8"?>
<!-- Generator: Adobe Illustrator 18.1.1, SVG Export Plug-In . SVG Version: 6.00 Build 0)  -->
<svg version="1.1" id="Layer_1" xmlns="http://www.w3.org/2000/svg" xmlns:xlink="http://www.w3.org/1999/xlink" x="0px" y="0px"
	 viewBox="0 0 600 200" enable-background="new 0 0 600 200" xml:space="preserve">
<g>
	<g>
		<g>
			<path fill="#FFFFFF" d="M590.8,89.3l-4.1-0.6l1.5,5.9l-3.9-5l-4.9,1.8l3.4-3.5l-2.8-3.1l4.6,1.1l2.3-3.1l-0.1,3.7L590.8,89.3z"/>
		</g>
		<g>
			<path fill="#FFFFFF" d="M255.8,79.5c-6.7,0-13.9,3.9-21.4,11.6c-0.6-2.8-1.2-5.2-1.9-7.3c5.4-4.2,8.5-10.1,8.5-16.2
				c0-3.3-1.9-12.1-6.2-12.1c-2,0-3.6,1.6-3.6,3.7c0,0.5,0,1.3,0.6,1.9c1.3,2.1,1.9,4.2,1.9,6.5c0,3.4-1.5,6.8-4,9.4
				c-4.6-8.7-11.7-13.6-19.6-13.6c-7.4,0-13,4.8-13,11.3c0,8.2,8.6,14.2,20.4,14.2c3,0,6.4-0.8,8.4-1.5c1,2.9,1.7,6,2.2,10.6
				c-10,11.8-18.1,30.4-18.1,41.8c0,6.2,3.8,10.5,9.3,10.5c11.7,0,17-20.1,17-38.8c0-4.1-0.2-8-0.6-11.5
				c7.1-8.7,14.2-13.5,19.9-13.5c8.5,0,9.8,11.1,9.8,17.7c0,11.9-4.9,27.2-12.7,40c-0.3,0.6-0.5,1.2-0.5,1.8c0,2,1.6,3.7,3.6,3.7
				c1.1,0,2.4-0.7,3.1-1.8c8.6-14.1,13.8-30.4,13.8-43.7C272.8,82.6,262.2,79.5,255.8,79.5z M219.8,143.2c-1.9,0-2.4-2.2-2.4-3.5
				c0.1-7.4,4.6-21,11.8-31.6c0,1.1,0.1,2.3,0.1,3.3C229.2,131.1,223.7,143.2,219.8,143.2z M217.6,81.9c-7.2,0-13.1-3.3-13.1-7.3
				c0-2.9,1.9-4.4,5.6-4.4c5.2,0,10,3.8,13.6,10.7C222,81.5,219.7,81.9,217.6,81.9z"/>
			<path fill="#FFFFFF" d="M305.6,121.9c0.7-3.6,1.4-7.8,1.5-8.9c0.2-1.1-0.1-2.3-0.8-3.1c-0.6-0.7-1.3-1-2.1-1
				c-2.2,0-3.7,1.1-4,3.1c-2.4,17.1-8.6,30.1-14.4,30.1c-3.1,0-3.3-6.8-3.3-8.9c0-5,0.8-11.1,2.6-18.6l0-0.8c0-2-1.7-3.7-3.7-3.7
				c-2.9,0-3.4,2.6-3.7,3.7l-0.1,0.3c-0.8,4.2-2.3,12-2.3,19.1c0,14.4,7.3,16,10.5,16c4.2,0,8.4-2.9,11.4-7.8
				c0.5,2.6,1.5,4.8,2.9,6.2c2.7,2.7,6.4,0.7,6.4-2.2c0-0.9-0.3-1.7-0.9-2.4c-1.3-1.3-1.8-3.5-1.8-6.6c0-3.5,0.8-8.1,1.7-13.4
				L305.6,121.9z"/>
			<path fill="#FFFFFF" d="M331.2,109.4l-2.2-0.1c-1.1,0-2.1-0.1-2.9-0.1c0.7-2.9,1.8-7.2,2.6-9.6c0.2-0.5,0.3-1.4,0.3-2
				c0-1.9-1.6-3.6-3.8-3.6c0,0,0,0,0,0c-1.5,3-2.7,1.4-3.2,2.8c-1.1,4-2.3,8.7-3.1,12.1c-4.1,0.1-8.7,0.6-8.7,4.5
				c0,2,1.4,3.1,2.7,3.1c0.7,0,1.4-0.1,2-0.2c0.6-0.1,1.3-0.2,2.2-0.3c-1.6,6.8-2.4,12.6-2.4,18.2c0,9,2.9,13.8,9.1,14.8l0.3,0.5
				c0.2,0,0.5,0.5,0.6,0.5h0l0-0.4c2-0.2,3.5-2,3.5-3.9c0-1.9-1.5-3.6-3.2-3.6c-0.8-0.2-3.2-1.7-3.2-9.1c0-5.3,0.9-9,2.6-19h0
				c2.1,0,5.1,1.2,6.8,1.2c1.9,0,3.3-0.9,3.3-2.9C334.7,110.5,333,109.7,331.2,109.4z"/>
			<path fill="#FFFFFF" d="M359.1,108.7c-4.2,0-9.6,2-12.9,7.3c-0.5-1.7-1.3-3.2-2.4-4.3c-1-1-2.1-1.6-3.2-1.6
				c-1.9,0-3.5,1.6-3.5,3.6c0,0.4,0,1.8,1,2.6c1,1,2,2.4,2,7.1c0,2.3-1.4,11.6-2.3,17.1c-0.6,3.8-0.7,4.7-0.7,5c0,2,1.4,3.6,3.4,3.6
				c1.8,0,3.3-1.2,3.6-3l0.8-4.3c2.4-13.6,4.5-25.3,14.7-25.9c2-0.2,3.4-1.5,3.4-3.4C362.9,110.3,361.2,108.7,359.1,108.7z"/>
			<path fill="#FFFFFF" d="M409.4,104.9c-10.7-3.8-15.2-6.3-15.2-11.7c0-5.3,5.3-10.7,15.4-10.7c0.5,0,1.2,0.1,2,0.2
				c-0.9,1.9-1.4,4.2-1.4,6.3c0,6.2,4.4,11,10.1,11c5.2,0,8.4-4.6,8.4-8.9c0-2.5-0.5-6.4-4.3-10.1c-0.2-0.2-0.4-0.4-0.7-0.6
				c1.4-0.6,2.9-0.9,4.5-0.9c2.2,0,3.8-1.4,3.8-3.1c0-2-1.6-3.6-3.7-3.6c-4.4,0-8.5,1.3-11.8,3.9c-2.4-0.6-4.6-0.9-6.7-0.9
				c-15,0-22.8,8.8-22.8,17.4c0,11.4,10.2,14.9,20.2,18.3c12.6,4.3,19.1,8.1,19.1,17.1c0,4-2,7.7-5.4,10
				c-1.3-13.1-11.9-22.4-25.9-22.4c-10.8,0-19.2,6.9-19.2,15.7c0,10.5,11.2,18.2,26.6,18.2c2.3,0,4.4-0.1,6.4-0.3
				c1-0.1,2.1-0.3,3.3-0.5c-1.6,3.3-4.1,5.8-6.8,6.9c-1.4,0.6-2.2,1.9-2.2,3.4c0,1.9,1.6,3.4,3.7,3.4c2.8,0,11-5.6,13.7-16.1
				c8.4-3.6,13.1-10.3,13.1-18.3C433.3,113.4,420,108.7,409.4,104.9z M421.6,91.1c0,0.8-0.3,2-1.3,2c-1.4,0-2.9-1.7-2.9-4.2
				c0-1.6,0.3-2.9,0.9-4.2C421.6,87.3,421.6,90.1,421.6,91.1z M394.8,123.2c5.9,0,10.9,1.9,14.3,5.5c3.2,3.3,4.8,8,4.7,13.2
				c-3.3,0.9-7.2,1.4-11.7,1.4c-10.9,0-19.4-5-19.4-11.3C382.7,127.1,388,123.2,394.8,123.2z"/>
			<path fill="#FFFFFF" d="M456.7,108.3c-12.7,0-20.9,16.6-20.9,28.1c0,9.3,5.4,12.5,10,12.5c8.6,0,12.4-7.9,12.4-10.3
				c0-2-1.5-3.6-3.5-3.6c-1.4,0-2.7,0.9-3.2,2.2c-0.8,2.3-2.6,4.7-5,4.7c-2.4,0-3.4-2.8-3.4-5.6c0-9.6,5.9-21.2,13.2-21.2
				c1.3,0,4.4,0.6,4.4,5.9c0,3.3-0.6,7-1.2,10.6l-0.2,1.2c-0.2,1.2-0.4,2.4-0.5,3.4c-0.4,2.3-0.7,4.3-0.7,5.9c0,3.9,1.6,6.4,4.2,6.4
				c2,0,3.7-1.6,3.7-3.5c0-0.8-0.3-1.3-0.5-1.7c-0.1-0.2-0.2-0.5-0.2-1c0-1.7,0.4-4.5,0.8-7l0.2-1.4c0.9-5.1,1.4-9.6,1.4-13.2
				C467.8,113,463.7,108.3,456.7,108.3z"/>
			<path fill="#FFFFFF" d="M501.3,121.9c0.7-3.6,1.4-7.8,1.5-8.9c0.2-1.1-0.1-2.3-0.8-3.1c-0.6-0.7-1.3-1-2.1-1
				c-2.2,0-3.7,1.1-4,3.1c-2.4,17.1-8.6,30.1-14.4,30.1c-3.1,0-3.3-6.8-3.3-8.9c0-5,0.8-11,2.6-18.6l0-0.8c0-2-1.7-3.7-3.7-3.7
				c-2.9,0-3.4,2.6-3.7,3.7l-0.1,0.3c-0.8,3.9-2.3,12-2.3,19.1c0,14.4,7.3,16,10.5,16c4.2,0,8.4-2.9,11.4-7.8
				c0.5,2.6,1.5,4.8,2.9,6.2c2.7,2.7,6.4,0.7,6.4-2.2c0-0.9-0.3-1.7-0.9-2.4c-1.3-1.3-1.8-3.4-1.8-6.6c0-3.5,0.8-8.1,1.7-13.5
				L501.3,121.9z"/>
			<path fill="#FFFFFF" d="M527.3,108.7c-4.2,0-9.6,2-12.9,7.3c-0.5-1.7-1.3-3.2-2.4-4.3c-1-1-2.1-1.6-3.2-1.6
				c-1.9,0-3.5,1.6-3.5,3.6c0,0.4,0,1.8,1,2.6c1,1,2,2.4,2,7.1c0,2.3-1.4,11.6-2.3,17.1c-0.6,3.8-0.7,4.7-0.7,5c0,2,1.4,3.6,3.4,3.6
				c1.8,0,3.3-1.2,3.6-3l0.8-4.3c2.4-13.6,4.5-25.3,14.7-25.9c2-0.2,3.4-1.5,3.4-3.4C531.1,110.3,529.4,108.7,527.3,108.7z"/>
			<path fill="#FFFFFF" d="M560.7,121.9c0.7-3.6,1.4-7.8,1.5-8.9c0.2-1.1-0.1-2.3-0.8-3.1c-0.6-0.7-1.3-1-2.1-1
				c-2.2,0-3.7,1.1-4,3.1c-2.4,17.1-8.6,30.1-14.4,30.1c-3.1,0-3.3-6.8-3.3-8.9c0-5,0.8-11,2.6-18.6l0-0.8c0-2-1.7-3.7-3.7-3.7
				c-2.9,0-3.4,2.6-3.7,3.7l-0.1,0.3c-0.8,3.9-2.3,12-2.3,19.1c0,14.4,7.3,16,10.5,16c4.2,0,8.4-2.9,11.4-7.8
				c0.5,2.6,1.5,4.8,2.9,6.2c2.7,2.7,6.4,0.7,6.4-2.2c0-0.9-0.3-1.7-0.9-2.4c-1.3-1.3-1.8-3.4-1.8-6.6c0-3.5,0.8-8.1,1.7-13.5
				L560.7,121.9z"/>
			<path fill="#FFFFFF" d="M580.5,123.9c-4.4-2.6-4.7-3.6-4.7-4.9c0-2.3,1.6-3.8,4.2-3.8c2.3,0,3.3,2.1,3.5,2.5
				c0.4,1.5,2.1,2.3,3.1,2.3c2.1,0,3.7-1.6,3.7-3.7c0-2.6-3.1-7.7-10.2-7.7c-7.4,0-11.5,5.3-11.5,10.3c0,6.7,6.2,10,8.5,11.2
				c3.7,2,5.5,4.4,5.5,7.1c0,4.7-4.3,5.9-6.8,5.9c-3.3,0-5.8-2.1-5.8-4c0-1.9,0.9-1.9,1.4-1.9c0.3,0,0.5,0,0.8,0.1
				c0.2,0.1,0.5,0.1,0.8,0.2c0.1,0,0.3,0,0.4,0c1.6,0,3.1-1.1,3.1-3.3c0-2.5-1.9-4-5.1-4c-4.9,0-8.7,3.9-8.7,9
				c0,6.4,6.6,10.2,13,10.2c8.5,0,14.2-5.2,14.2-12.9C589.9,130.7,586.1,127.3,580.5,123.9z"/>
			<g>
				<path fill="#FFFFFF" d="M378.8,98l-4.3,3l6.6,4.2l-8-1.3l-3,5.9l0.1-6.3l-5.4-0.4l5.3-3l-0.5-5l3.2,3.6L378.8,98z"/>
			</g>
			<g>
				<path fill="#FFFFFF" d="M592.9,99.6l-3.6,1.5l4.1,4.1l-5.6-2.2l-3.1,3.8l1.1-4.5L582,101l4.3-1.3l0.4-3.7l1.8,3.1L592.9,99.6z"
					/>
			</g>
			<g>
				<path fill="#FFFFFF" d="M577.1,91.2l-4.5,2.7l6.3,4.7l-7.9-1.9l-3.4,5.7l0.6-6.2l-5.4-0.8l5.5-2.6l-0.2-5l3,3.8L577.1,91.2z"/>
			</g>
			<path fill="#FFFFFF" d="M372,109.9c-2-0.5-4.1,0.8-4.4,2.6c-3.3,12.9-4.9,31.8-4.9,33.3c0,2.1,1.6,3.7,3.7,3.7
				c1.9,0,3.4-1.4,3.6-3.4c0.6-10,2.6-23.9,4.6-31.8c0.2-0.4,0.2-0.8,0.2-0.9C374.8,111.8,373.7,110.3,372,109.9z"/>
		</g>
	</g>
	<path fill="#FFFFFF" d="M96.5,10.9C47.3,10.9,7.4,50.8,7.4,100c0,49.2,39.9,89.1,89.1,89.1c49.2,0,89.1-39.9,89.1-89.1
		C185.6,50.8,145.7,10.9,96.5,10.9z M146.3,140.2c0,1.4-1.2,3.9-2.1,4c-1.6,0.2-3.8-0.5-5-1.6c-10.7-10.3-21.2-20.7-31.8-31.2
		c-1.4-1.4-4.3-3.1-4.8-3.7c0.3,0.8,0.5,1.7,0.8,2.5c4.2,11.7,2.2,22.2-6.6,31c-9,8.9-20,11.1-31.7,6.5c-11.3-4.5-18-13.2-18.3-25.4
		c-0.5-20.6-0.2-41.1-0.1-61.7c0-1.5,1.1-3.8,2.3-4.3c1.2-0.5,3.6,0.5,4.7,1.5C64.9,68.7,76,79.7,87.1,90.7c0.9,0.9,1.9,1.7,2.8,2.6
		c-3.3-9.1-3.5-17.7,0.6-26.1c6-12.2,19.3-18.5,32.7-15.7c13.1,2.7,22.8,13.8,23.1,27.4C146.7,99.3,146.4,119.7,146.3,140.2z"/>
</g>
</svg>
